<svg xmlns="http://www.w3.org/2000/svg" xmlns:xlink="http://www.w3.org/1999/xlink" width="1920" zoomAndPan="magnify" viewBox="0 0 1440 809.999993" height="1080" preserveAspectRatio="xMidYMid meet" version="1.0"><defs><g/><clipPath id="76dd9c53cf"><path d="M 68 365 L 1072 365 L 1072 502.238281 L 68 502.238281 Z M 68 365 " clip-rule="nonzero"/></clipPath><clipPath id="e5f24016c2"><rect x="0" width="1004" y="0" height="138"/></clipPath><clipPath id="e19738dd68"><rect x="0" width="1146" y="0" height="503"/></clipPath></defs><g transform="matrix(1, 0, 0, 1, 147, 146)"><g clip-path="url(#e19738dd68)"><path fill="#000000" d="M 100.671875 279.796875 L 79.574219 279.796875 C 79.46875 279.796875 79.378906 279.757812 79.304688 279.683594 C 79.230469 279.609375 79.195312 279.523438 79.195312 279.417969 L 79.195312 91.648438 C 79.195312 91.566406 79.226562 91.492188 79.285156 91.433594 C 79.34375 91.371094 79.417969 91.339844 79.503906 91.339844 C 145.1875 91.359375 181.273438 91.351562 187.761719 91.324219 C 193.886719 91.292969 198.648438 91.515625 202.046875 91.992188 C 236.527344 96.804688 262.863281 124.167969 267.238281 158.488281 C 267.425781 159.980469 267.519531 161.0625 267.515625 161.730469 C 267.496094 163.203125 267.8125 164.492188 267.8125 166.058594 C 267.816406 203.789062 267.816406 241.527344 267.8125 279.285156 C 267.808594 279.425781 267.761719 279.546875 267.660156 279.644531 C 267.5625 279.746094 267.441406 279.796875 267.300781 279.796875 L 246.492188 279.796875 C 246.355469 279.796875 246.242188 279.746094 246.144531 279.652344 C 246.050781 279.554688 246 279.441406 246 279.304688 C 246 274.839844 245.996094 240.726562 245.988281 176.964844 C 245.980469 174.234375 245.664062 170.5 245.035156 165.769531 C 244.386719 160.9375 243.234375 156.234375 241.574219 151.65625 C 233.414062 129.167969 214.722656 116.988281 191.636719 113.722656 C 188.261719 113.246094 180.464844 113.015625 168.238281 113.03125 C 130.164062 113.074219 107.925781 113.074219 101.523438 113.039062 C 101.375 113.035156 101.25 113.085938 101.144531 113.1875 C 101.039062 113.289062 100.988281 113.414062 100.988281 113.558594 L 100.988281 279.472656 C 100.988281 279.5625 100.957031 279.640625 100.894531 279.703125 C 100.832031 279.765625 100.757812 279.796875 100.671875 279.796875 Z M 100.671875 279.796875 " fill-opacity="1" fill-rule="nonzero"/><path fill="#000000" d="M 622.582031 91.335938 L 643.675781 91.335938 C 643.777344 91.335938 643.867188 91.371094 643.941406 91.445312 C 644.015625 91.519531 644.050781 91.609375 644.050781 91.714844 L 644.046875 279.417969 C 644.046875 279.503906 644.015625 279.574219 643.957031 279.636719 C 643.894531 279.695312 643.824219 279.726562 643.738281 279.726562 C 578.074219 279.710938 542 279.714844 535.519531 279.746094 C 529.390625 279.773438 524.628906 279.550781 521.230469 279.078125 C 486.765625 274.261719 460.441406 246.90625 456.066406 212.597656 C 455.878906 211.105469 455.785156 210.023438 455.789062 209.355469 C 455.808594 207.882812 455.492188 206.597656 455.492188 205.027344 C 455.488281 167.3125 455.492188 129.582031 455.5 91.839844 C 455.5 91.699219 455.550781 91.578125 455.648438 91.476562 C 455.75 91.378906 455.871094 91.328125 456.011719 91.328125 L 476.8125 91.328125 C 476.949219 91.328125 477.0625 91.375 477.160156 91.472656 C 477.253906 91.566406 477.304688 91.683594 477.304688 91.820312 C 477.304688 96.277344 477.308594 130.382812 477.3125 194.128906 C 477.316406 196.855469 477.632812 200.585938 478.261719 205.316406 C 478.910156 210.148438 480.0625 214.851562 481.722656 219.421875 C 489.878906 241.90625 508.5625 254.085938 531.640625 257.351562 C 535.015625 257.828125 542.8125 258.058594 555.035156 258.042969 C 593.097656 258 615.328125 258 621.730469 258.035156 C 621.878906 258.039062 622.003906 257.988281 622.109375 257.886719 C 622.214844 257.785156 622.265625 257.660156 622.265625 257.515625 L 622.265625 91.65625 C 622.265625 91.566406 622.296875 91.492188 622.359375 91.429688 C 622.417969 91.367188 622.496094 91.335938 622.582031 91.335938 Z M 622.582031 91.335938 " fill-opacity="1" fill-rule="nonzero"/><path fill="#000000" d="M 1019.324219 112.855469 C 1019.324219 112.941406 1019.292969 113.015625 1019.230469 113.078125 C 1019.167969 113.140625 1019.089844 113.167969 1019.003906 113.167969 L 853.382812 113.164062 C 853.238281 113.164062 853.113281 113.214844 853.011719 113.320312 C 852.910156 113.425781 852.859375 113.550781 852.859375 113.699219 C 852.898438 120.09375 852.894531 142.304688 852.855469 180.324219 C 852.835938 192.53125 853.066406 200.320312 853.539062 203.691406 C 856.804688 226.742188 868.957031 245.40625 891.410156 253.554688 C 895.976562 255.214844 900.671875 256.367188 905.496094 257.015625 C 910.222656 257.640625 913.949219 257.957031 916.675781 257.960938 C 980.328125 257.972656 1014.378906 257.980469 1018.832031 257.980469 C 1018.96875 257.980469 1019.085938 258.03125 1019.179688 258.125 C 1019.277344 258.222656 1019.324219 258.335938 1019.324219 258.472656 L 1019.324219 279.246094 C 1019.324219 279.386719 1019.273438 279.507812 1019.175781 279.609375 C 1019.074219 279.707031 1018.953125 279.757812 1018.8125 279.757812 C 981.121094 279.761719 943.445312 279.761719 905.785156 279.757812 C 904.222656 279.757812 902.9375 279.441406 901.460938 279.460938 C 900.792969 279.464844 899.714844 279.375 898.230469 279.183594 C 863.96875 274.816406 836.65625 248.511719 831.847656 214.085938 C 831.375 210.6875 831.152344 205.933594 831.179688 199.820312 C 831.210938 193.339844 831.214844 157.304688 831.199219 91.714844 C 831.199219 91.628906 831.230469 91.554688 831.289062 91.496094 C 831.351562 91.433594 831.421875 91.40625 831.507812 91.40625 L 1018.945312 91.40625 C 1019.050781 91.40625 1019.140625 91.441406 1019.214844 91.515625 C 1019.285156 91.589844 1019.324219 91.679688 1019.324219 91.78125 Z M 1019.324219 112.855469 " fill-opacity="1" fill-rule="nonzero"/><path fill="#000000" d="M 899.648438 175.28125 L 1018.996094 175.28125 C 1019.121094 175.28125 1019.226562 175.324219 1019.3125 175.414062 C 1019.398438 175.5 1019.445312 175.605469 1019.445312 175.730469 L 1019.445312 195.144531 C 1019.445312 195.265625 1019.398438 195.371094 1019.3125 195.460938 C 1019.226562 195.546875 1019.121094 195.589844 1018.996094 195.589844 L 899.648438 195.589844 C 899.523438 195.589844 899.417969 195.546875 899.332031 195.460938 C 899.242188 195.371094 899.199219 195.265625 899.199219 195.144531 L 899.199219 175.730469 C 899.199219 175.605469 899.242188 175.5 899.332031 175.414062 C 899.417969 175.324219 899.523438 175.28125 899.648438 175.28125 Z M 899.648438 175.28125 " fill-opacity="1" fill-rule="nonzero"/><g clip-path="url(#76dd9c53cf)"><g transform="matrix(1, 0, 0, 1, 68, 365)"><g clip-path="url(#e5f24016c2)"><g fill="#000000" fill-opacity="1"><g transform="translate(0.559312, 103.750901)"><g><path d="M 12.59375 -96.453125 L 49.171875 -96.453125 C 55.492188 -96.453125 60.957031 -95.1875 65.5625 -92.65625 C 70.164062 -90.132812 73.734375 -86.660156 76.265625 -82.234375 C 78.796875 -77.804688 80.0625 -72.789062 80.0625 -67.1875 C 80.0625 -61.59375 78.796875 -56.601562 76.265625 -52.21875 C 73.734375 -47.84375 70.164062 -44.390625 65.5625 -41.859375 C 60.957031 -39.328125 55.492188 -38.0625 49.171875 -38.0625 L 27.234375 -38.0625 L 27.234375 0 L 12.59375 0 Z M 48.359375 -83.3125 L 27.234375 -83.3125 L 27.234375 -51.203125 L 48.359375 -51.203125 C 53.503906 -51.203125 57.632812 -52.601562 60.75 -55.40625 C 63.875 -58.207031 65.4375 -62.132812 65.4375 -67.1875 C 65.4375 -72.34375 63.875 -76.316406 60.75 -79.109375 C 57.632812 -81.910156 53.503906 -83.3125 48.359375 -83.3125 Z M 48.359375 -83.3125 "/></g></g></g><g fill="#000000" fill-opacity="1"><g transform="translate(128.954598, 103.750901)"><g><path d="M 12.59375 -96.453125 L 49.984375 -96.453125 C 56.128906 -96.453125 61.4375 -95.234375 65.90625 -92.796875 C 70.375 -90.359375 73.828125 -87.039062 76.265625 -82.84375 C 78.703125 -78.644531 79.921875 -73.789062 79.921875 -68.28125 C 79.921875 -61.414062 78.066406 -55.8125 74.359375 -51.46875 C 70.660156 -47.132812 66.101562 -44.203125 60.6875 -42.671875 L 82.90625 0 L 65.84375 0 L 45.515625 -40.640625 L 27.234375 -40.640625 L 27.234375 0 L 12.59375 0 Z M 48.90625 -83.3125 L 27.234375 -83.3125 L 27.234375 -53.109375 L 48.90625 -53.109375 C 53.78125 -53.109375 57.726562 -54.4375 60.75 -57.09375 C 63.78125 -59.757812 65.296875 -63.441406 65.296875 -68.140625 C 65.296875 -72.929688 63.78125 -76.65625 60.75 -79.3125 C 57.726562 -81.976562 53.78125 -83.3125 48.90625 -83.3125 Z M 48.90625 -83.3125 "/></g></g></g><g fill="#000000" fill-opacity="1"><g transform="translate(260.870939, 103.750901)"><g><path d="M 43.75 -97.265625 C 49.082031 -97.265625 53.800781 -96.425781 57.90625 -94.75 C 62.019531 -93.082031 65.613281 -90.671875 68.6875 -87.515625 C 71.84375 -84.347656 74.097656 -81.023438 75.453125 -77.546875 C 76.804688 -74.078125 77.640625 -70.015625 77.953125 -65.359375 C 78.273438 -60.710938 78.4375 -55.003906 78.4375 -48.234375 C 78.4375 -41.546875 78.273438 -35.851562 77.953125 -31.15625 C 77.640625 -26.457031 76.804688 -22.367188 75.453125 -18.890625 C 74.097656 -15.421875 71.84375 -12.101562 68.6875 -8.9375 C 65.613281 -5.863281 62.019531 -3.46875 57.90625 -1.75 C 53.800781 -0.0390625 49.082031 0.8125 43.75 0.8125 C 38.519531 0.8125 33.847656 -0.0390625 29.734375 -1.75 C 25.628906 -3.46875 21.992188 -5.863281 18.828125 -8.9375 C 15.671875 -12.101562 13.414062 -15.421875 12.0625 -18.890625 C 10.707031 -22.367188 9.867188 -26.457031 9.546875 -31.15625 C 9.234375 -35.851562 9.078125 -41.546875 9.078125 -48.234375 C 9.078125 -55.003906 9.234375 -60.710938 9.546875 -65.359375 C 9.867188 -70.015625 10.707031 -74.078125 12.0625 -77.546875 C 13.414062 -81.023438 15.671875 -84.347656 18.828125 -87.515625 C 21.992188 -90.671875 25.628906 -93.082031 29.734375 -94.75 C 33.847656 -96.425781 38.519531 -97.265625 43.75 -97.265625 Z M 43.75 -84.125 C 37.882812 -84.125 33.097656 -82.179688 29.390625 -78.296875 C 27.859375 -76.585938 26.660156 -74.625 25.796875 -72.40625 C 24.941406 -70.195312 24.378906 -67.21875 24.109375 -63.46875 C 23.835938 -59.71875 23.703125 -54.640625 23.703125 -48.234375 C 23.703125 -41.910156 23.835938 -36.875 24.109375 -33.125 C 24.378906 -29.375 24.941406 -26.390625 25.796875 -24.171875 C 26.660156 -21.960938 27.859375 -20 29.390625 -18.28125 C 33.191406 -14.3125 37.976562 -12.328125 43.75 -12.328125 C 49.53125 -12.328125 54.316406 -14.3125 58.109375 -18.28125 C 59.734375 -20 60.953125 -21.941406 61.765625 -24.109375 C 62.585938 -26.273438 63.132812 -29.253906 63.40625 -33.046875 C 63.675781 -36.847656 63.8125 -41.910156 63.8125 -48.234375 C 63.8125 -54.640625 63.675781 -59.71875 63.40625 -63.46875 C 63.132812 -67.21875 62.585938 -70.21875 61.765625 -72.46875 C 60.953125 -74.726562 59.734375 -76.671875 58.109375 -78.296875 C 54.410156 -82.179688 49.625 -84.125 43.75 -84.125 Z M 43.75 -84.125 "/></g></g></g><g fill="#000000" fill-opacity="1"><g transform="translate(391.568423, 103.750901)"><g><path d="M 57.296875 -96.453125 L 57.296875 -30.484375 C 57.296875 -23.796875 55.851562 -18.125 52.96875 -13.46875 C 50.082031 -8.820312 46.222656 -5.28125 41.390625 -2.84375 C 36.554688 -0.40625 31.160156 0.8125 25.203125 0.8125 C 20.234375 0.8125 15.914062 0.09375 12.25 -1.34375 C 8.59375 -2.789062 5.097656 -5.1875 1.765625 -8.53125 L 11.515625 -18.15625 C 13.234375 -16.4375 15.0625 -15.035156 17 -13.953125 C 18.9375 -12.867188 21.671875 -12.328125 25.203125 -12.328125 C 30.617188 -12.328125 34.882812 -13.953125 38 -17.203125 C 41.113281 -20.453125 42.671875 -25.238281 42.671875 -31.5625 L 42.671875 -96.453125 Z M 57.296875 -96.453125 "/></g></g></g><g fill="#000000" fill-opacity="1"><g transform="translate(503.171089, 103.750901)"><g><path d="M 74.234375 -96.453125 L 74.234375 -83.3125 L 27.234375 -83.3125 L 27.234375 -55.140625 L 67.328125 -55.140625 L 67.328125 -42 L 27.234375 -42 L 27.234375 -13.140625 L 74.234375 -13.140625 L 74.234375 0 L 12.59375 0 L 12.59375 -96.453125 Z M 74.234375 -96.453125 "/></g></g></g><g fill="#000000" fill-opacity="1"><g transform="translate(628.04532, 103.750901)"><g><path d="M 71.796875 -96.453125 L 71.796875 -83.3125 L 45.25 -83.3125 L 45.25 0 L 30.609375 0 L 30.609375 -83.3125 L 4.0625 -83.3125 L 4.0625 -96.453125 Z M 71.796875 -96.453125 "/></g></g></g><g fill="#000000" fill-opacity="1"><g transform="translate(747.096381, 103.750901)"><g><path d="M 43.75 -97.265625 C 49.082031 -97.265625 53.800781 -96.425781 57.90625 -94.75 C 62.019531 -93.082031 65.613281 -90.671875 68.6875 -87.515625 C 71.84375 -84.347656 74.097656 -81.023438 75.453125 -77.546875 C 76.804688 -74.078125 77.640625 -70.015625 77.953125 -65.359375 C 78.273438 -60.710938 78.4375 -55.003906 78.4375 -48.234375 C 78.4375 -41.546875 78.273438 -35.851562 77.953125 -31.15625 C 77.640625 -26.457031 76.804688 -22.367188 75.453125 -18.890625 C 74.097656 -15.421875 71.84375 -12.101562 68.6875 -8.9375 C 65.613281 -5.863281 62.019531 -3.46875 57.90625 -1.75 C 53.800781 -0.0390625 49.082031 0.8125 43.75 0.8125 C 38.519531 0.8125 33.847656 -0.0390625 29.734375 -1.75 C 25.628906 -3.46875 21.992188 -5.863281 18.828125 -8.9375 C 15.671875 -12.101562 13.414062 -15.421875 12.0625 -18.890625 C 10.707031 -22.367188 9.867188 -26.457031 9.546875 -31.15625 C 9.234375 -35.851562 9.078125 -41.546875 9.078125 -48.234375 C 9.078125 -55.003906 9.234375 -60.710938 9.546875 -65.359375 C 9.867188 -70.015625 10.707031 -74.078125 12.0625 -77.546875 C 13.414062 -81.023438 15.671875 -84.347656 18.828125 -87.515625 C 21.992188 -90.671875 25.628906 -93.082031 29.734375 -94.75 C 33.847656 -96.425781 38.519531 -97.265625 43.75 -97.265625 Z M 43.75 -84.125 C 37.882812 -84.125 33.097656 -82.179688 29.390625 -78.296875 C 27.859375 -76.585938 26.660156 -74.625 25.796875 -72.40625 C 24.941406 -70.195312 24.378906 -67.21875 24.109375 -63.46875 C 23.835938 -59.71875 23.703125 -54.640625 23.703125 -48.234375 C 23.703125 -41.910156 23.835938 -36.875 24.109375 -33.125 C 24.378906 -29.375 24.941406 -26.390625 25.796875 -24.171875 C 26.660156 -21.960938 27.859375 -20 29.390625 -18.28125 C 33.191406 -14.3125 37.976562 -12.328125 43.75 -12.328125 C 49.53125 -12.328125 54.316406 -14.3125 58.109375 -18.28125 C 59.734375 -20 60.953125 -21.941406 61.765625 -24.109375 C 62.585938 -26.273438 63.132812 -29.253906 63.40625 -33.046875 C 63.675781 -36.847656 63.8125 -41.910156 63.8125 -48.234375 C 63.8125 -54.640625 63.675781 -59.71875 63.40625 -63.46875 C 63.132812 -67.21875 62.585938 -70.21875 61.765625 -72.46875 C 60.953125 -74.726562 59.734375 -76.671875 58.109375 -78.296875 C 54.410156 -82.179688 49.625 -84.125 43.75 -84.125 Z M 43.75 -84.125 "/></g></g></g><g fill="#000000" fill-opacity="1"><g transform="translate(877.793824, 103.750901)"><g><path d="M 39.5625 -97.265625 C 45.96875 -97.265625 51.519531 -96.40625 56.21875 -94.6875 C 60.914062 -92.976562 65.34375 -90.179688 69.5 -86.296875 L 60.28125 -77.078125 C 57.300781 -79.972656 54.050781 -81.9375 50.53125 -82.96875 C 47.007812 -84.007812 43.171875 -84.53125 39.015625 -84.53125 C 33.328125 -84.53125 28.992188 -83.128906 26.015625 -80.328125 C 23.035156 -77.535156 21.546875 -73.925781 21.546875 -69.5 C 21.546875 -67.78125 21.816406 -66.128906 22.359375 -64.546875 C 22.898438 -62.972656 23.800781 -61.640625 25.0625 -60.546875 C 26.320312 -59.460938 27.742188 -58.582031 29.328125 -57.90625 C 30.910156 -57.226562 33.007812 -56.664062 35.625 -56.21875 L 47.140625 -54.453125 C 51.566406 -53.828125 55.132812 -52.945312 57.84375 -51.8125 C 60.550781 -50.6875 62.945312 -49.175781 65.03125 -47.28125 C 70.257812 -42.488281 72.875 -35.894531 72.875 -27.5 C 72.875 -21.625 71.40625 -16.5625 68.46875 -12.3125 C 65.539062 -8.070312 61.457031 -4.820312 56.21875 -2.5625 C 50.976562 -0.3125 44.972656 0.8125 38.203125 0.8125 C 30.972656 0.8125 24.648438 -0.132812 19.234375 -2.03125 C 13.816406 -3.925781 8.757812 -7.222656 4.0625 -11.921875 L 13.6875 -21.546875 C 17.207031 -18.015625 21 -15.570312 25.0625 -14.21875 C 29.125 -12.863281 33.59375 -12.1875 38.46875 -12.1875 C 44.882812 -12.1875 49.804688 -13.492188 53.234375 -16.109375 C 56.671875 -18.734375 58.390625 -22.394531 58.390625 -27.09375 C 58.390625 -29.257812 58.09375 -31.175781 57.5 -32.84375 C 56.914062 -34.519531 55.945312 -35.945312 54.59375 -37.125 C 52.25 -39.195312 48.726562 -40.550781 44.03125 -41.1875 L 32.640625 -42.8125 C 28.765625 -43.4375 25.289062 -44.378906 22.21875 -45.640625 C 19.144531 -46.910156 16.570312 -48.539062 14.5 -50.53125 C 9.707031 -54.863281 7.3125 -61.050781 7.3125 -69.09375 C 7.3125 -74.6875 8.597656 -79.601562 11.171875 -83.84375 C 13.742188 -88.09375 17.445312 -91.390625 22.28125 -93.734375 C 27.113281 -96.085938 32.875 -97.265625 39.5625 -97.265625 Z M 39.5625 -97.265625 "/></g></g></g></g></g></g></g></g></svg>